PathFileType	4	(X/Y/Z)	C:/Users/beibeiliu/ov580/test_trc/User3\sequence.40_training_dense_right.trc
DataRate	CameraRate	NumFrames	NumMarkers	Units	OrigDataRate	OrigDataStartFrame	OrigNumFrames
120	120	16	19	mm	120	58	114
Frame#	Time	ThumbCMC			ThumbMCP			ThumbIP			ThumbTip			IndexMCP			IndexPIP			IndexTip			MiddleMCP			MiddlePIP			MiddleTip			RingMCP			RingPIP			RingTip			PinkyMCP			PinkyPIP			PinkyTip			BackHand1			BackHand2			BackHand3	
		X0	Y0	Z0	X1	Y1	Z1	X2	Y2	Z2	X3	Y3	Z3	X4	Y4	Z4	X5	Y5	Z5	X6	Y6	Z6	X7	Y7	Z7	X8	Y8	Z8	X9	Y9	Z9	X10	Y10	Z10	X11	Y11	Z11	X12	Y12	Z12	X13	Y13	Z13	X14	Y14	Z14	X15	Y15	Z15	X16	Y16	Z16	X17	Y17	Z17	X18	Y18	Z18	
57	0.475	104.552	-2.76562	11.0218	89.2081	4.01417	-17.6655	77.8929	7.50221	-45.4054	74.6019	3.51956	-62.4948	114.904	-10.8799	-62.7192	99.3346	-39.9982	-59.9688	104.372	-33.9619	-26.4153	131.795	-27.769	-62.1234	112.366	-52.3491	-49.701	122.395	-36.5479	-16.9635	146.731	-38.225	-54.4993	128.043	-61.5368	-45.338	124.916	-47.788	-13.2795	170.647	-35.8519	-52.9298	163.786	-43.9856	-70.6254	155.796	-60.0003	-92.7098	164.226	-5.1455	-9.47187	166.201	-9.1973	18.0959	138.391	8.54463	2.92511	
58	0.483333	107.511	-4.84415	12.6616	91.6109	0.365692	-11.285	81.7179	5.45761	-38.308	81.6206	1.21222	-62.7157	118.888	-14.4394	-57.7872	97.5635	-40.4938	-54.7298	102.18	-34.4432	-23.2231	133.639	-28.4614	-57.2428	115.726	-56.2096	-44.9379	121.839	-35.5419	-10.5758	144.366	-38.5713	-51.1965	129.887	-64.4413	-39.0292	126.752	-52.9422	-9.87129	171.32	-39.1508	-46.6239	165.6	-49.1236	-66.8971	157.939	-62.6724	-86.5643	167.746	-12.1526	-3.71373	167.257	-13.5984	28.0049	139.698	5.84178	9.56296	
59	0.491667	110.363	-8.54258	17.7252	93.724	-0.355409	-8.35323	92.8523	-0.760095	-38.2444	87.8418	-2.90214	-58.7882	118.033	-15.5139	-54.1804	102.058	-42.909	-52.0497	107.393	-38.5351	-18.7015	133.124	-34.4408	-54.2156	115.578	-58.2556	-41.1215	123.448	-42.326	-7.38552	148.216	-45.068	-47.2935	130.968	-68.4757	-35.0699	131.488	-56.5419	-4.28311	172.832	-43.0258	-40.3002	167.486	-53.74	-60.6089	156.194	-64.7484	-77.9423	168.729	-14.1448	-4.1308	169.177	-15.754	31.5582	143.229	3.31913	14.2259	
60	0.5	111.767	-8.88122	22.9526	103.713	-4.73828	-5.36196	96.4384	-0.694246	-34.3299	92.5442	-2.45906	-58.2796	124.958	-19.7355	-53.5272	103.48	-44.0124	-46.7208	108.354	-35.9666	-14.3812	137.671	-32.0519	-50.3308	116.234	-56.5641	-40.9066	131.337	-41.9412	-3.14215	150.397	-49.8309	-45.3354	134.106	-69.0664	-32.3091	135.471	-56.5804	-0.683647	176.024	-47.1729	-37.4235	164.798	-53.4216	-59.3118	162.475	-66.0863	-76.5955	175.528	-17.4797	0.880077	174.398	-19.0986	33.2833	148.392	1.70012	13.9051	
61	0.508333	120.382	-10.178	21.7244	105.781	-4.0744	-2.44265	101.811	-0.0666736	-33.4817	103.129	-3.43516	-54.2873	132.66	-15.2009	-48.5087	114.348	-45.0761	-47.604	112.735	-38.2102	-16.8363	148.582	-33.9221	-47.3108	123.338	-57.02	-39.1041	132.324	-42.6176	-3.53062	156.646	-45.5557	-42.4109	139.604	-67.9854	-34.6862	140.373	-59.1995	-0.714737	179.913	-43.2744	-37.7442	177.192	-51.3535	-54.7558	169.016	-57.8976	-80.7458	181.408	-19.9306	2.6845	180.541	-21.6826	34.8767	151.897	1.14602	18.0952	
62	0.516667	125.333	-10.679	24.4775	114.588	-5.28792	-1.84371	110.572	1.54092	-33.9203	107.431	1.26734	-53.6804	142.38	-16.2668	-46.7663	123.929	-42.4995	-50.7133	119.403	-38.4474	-15.6743	153.301	-35.0312	-50.7039	131.631	-56.0694	-40.9437	141.965	-43.6342	-2.68727	168.078	-45.697	-40.7132	144.438	-67.2583	-32.4007	147.319	-55.825	1.25002	191.881	-43.3857	-33.9695	185.684	-46.2766	-56.6449	179.85	-50.6302	-79.6002	186.645	-19.3626	7.86866	187.624	-23.7913	39.3945	159.165	-2.39468	18.8184	
63	0.525	128.766	-11.2886	22.7829	119.513	-4.62809	-2.97167	113.324	3.09931	-31.3346	111.291	3.43305	-56.3455	147.305	-17.7484	-47.3037	122.303	-41.8652	-49.497	127.717	-40.3776	-15.7157	159.514	-34.243	-48.0391	138.591	-56.6786	-43.1784	147.427	-45.1792	-1.83712	173.58	-45.9161	-40.2667	153.995	-68.6854	-34.154	152.283	-59.7195	-2.6045	196.507	-43.549	-32.9695	191.373	-44.7912	-52.2217	191.657	-48.3666	-76.9516	192.272	-18.8355	5.64205	189.005	-24.8138	40.1582	160.811	-2.41888	19.2533	
64	0.533333	130.01	-13.896	26.6488	120.263	-3.34873	-6.25519	114.754	-0.506266	-32.1897	118.568	-2.61522	-58.2152	146.153	-15.0773	-48.42	124.055	-43.4961	-48.6235	128.585	-40.2074	-16.4093	157.923	-32.9442	-49.1428	141.299	-59.1065	-41.7019	144.263	-45.684	-4.25164	173.875	-46.4955	-41.3487	154.172	-71.8267	-31.5009	151.399	-60.5995	-3.69147	195.906	-43.0441	-33.4516	194.356	-46.4302	-55.3802	196.053	-50.497	-76.6836	194.039	-21.1477	4.81173	191.227	-24.3988	38.7066	163.946	-4.11548	20.4832	
65	0.541667	128.867	-14.5054	22.6691	121.798	-10.9378	-6.98947	118.475	-8.60304	-36.2156	122.405	-15.2223	-58.8682	147.976	-18.8635	-49.3671	130.469	-48.5403	-49.8567	128.666	-43.9116	-19.2423	161.491	-39.9994	-51.8045	142.215	-61.5993	-42.7374	143.81	-47.6696	-6.43168	171.537	-48.5169	-43.1975	153.139	-70.7109	-34.4374	151.077	-58.5273	-2.99912	195.534	-44.6642	-35.5795	194.987	-50.9107	-57.8839	192.993	-53.4142	-76.0913	193.168	-21.7465	7.12932	188.056	-24.547	38.9135	166.356	-3.49253	16.9622	
66	0.55	127.75	-16.2446	21.424	119.788	-14.9738	-7.1544	118.963	-13.4277	-40.3998	125.145	-22.1239	-60.2627	148.589	-24.8367	-51.2665	128.31	-48.371	-53.6931	128.801	-42.399	-17.2967	162.281	-38.4826	-49.5805	142.306	-64.1891	-42.3854	148.654	-48.0666	-4.82913	173.303	-53.0822	-44.4841	154.864	-74.8142	-31.3754	152.346	-61.8621	-3.3888	196.769	-46.4092	-34.4772	194.727	-51.6853	-52.0402	195.851	-58.4797	-77.2026	195.538	-22.7592	3.90703	189.635	-26.3343	36.1702	163.59	-6.28589	18.9694	
67	0.558333	126.761	-17.256	22.1812	119.694	-16.5396	-7.94665	122.043	-17.887	-38.9901	122.85	-24.1158	-60.3951	150.326	-24.2642	-50.9532	129.783	-48.7851	-52.7253	131.402	-45.0113	-19.3686	159.01	-39.664	-51.343	144.494	-64.4097	-43.2371	148.543	-50.8148	-6.60466	177.981	-49.9526	-41.2295	157.666	-73.6326	-35.7173	154.793	-62.7634	-4.0252	199.828	-47.9279	-33.0876	194.647	-50.5497	-56.6617	197.479	-56.3515	-75.3063	192.986	-22.5101	7.80613	191.49	-26.7324	40.153	161.901	-4.62036	17.0822	
68	0.566667	125.828	-19.7945	21.3795	118.827	-18.2913	-6.64514	114.807	-16.2237	-40.3989	120.442	-21.707	-62.2443	151.294	-19.0535	-49.3645	135.135	-46.3653	-57.7652	128.386	-42.9384	-24.3194	163.626	-37.7026	-53.5249	146.922	-61.0814	-46.186	149.4	-48.283	-8.64802	179.175	-47.7255	-43.7501	158.657	-69.5929	-38.9388	153.866	-58.3732	-5.33033	198.457	-42.6897	-34.5361	195.643	-45.8208	-51.8557	197.06	-47.8811	-78.4718	190.221	-19.4332	8.36593	189.333	-25.4154	36.6217	164.044	-6.63783	18.0043	
69	0.575	128.701	-16.7462	13.5041	118.305	-13.9584	-12.5007	117.281	-9.98215	-46.4668	119.758	-14.9039	-65.6859	147.452	-8.79972	-57.9566	133.654	-35.4655	-64.8425	128.285	-38.1646	-32.1743	162.891	-23.7437	-57.216	145.789	-50.7604	-53.8444	152.172	-42.573	-15.1205	179.762	-34.2056	-48.2383	161.261	-58.5544	-48.0696	159.215	-54.849	-12.6665	196.719	-28.5069	-39.7361	201.439	-32.964	-57.2044	201.764	-33.4135	-79.8219	191.574	-11.6057	2.63517	183.074	-17.7809	35.5389	156.446	-1.1621	18.0154	
70	0.583333	129.263	-11.2571	4.7314	120.738	-7.99958	-25.9947	116.194	-4.09341	-57.4308	122.208	-7.00711	-79.3807	152.124	-0.883136	-69.0367	137.621	-27.2516	-76.1584	131.396	-30.8674	-40.978	169.298	-13.4909	-66.6958	150.527	-40.2577	-67.0344	153.17	-37.4427	-27.3208	180.77	-20.9618	-58.3457	166.908	-48.5811	-59.962	158.135	-47.0292	-26.2491	201.033	-12.0803	-48.7688	204.615	-14.0938	-71.0061	204.343	-13.4266	-89.207	192.019	0.101165	-8.47932	186.476	-6.24056	21.068	159.394	10.8957	5.98254	
71	0.591667	127.101	-9.62518	-8.56036	113.983	-11.993	-36.6277	117.596	-14.9997	-68.7414	120.777	-20.508	-93.3426	147.324	-5.54614	-80.3138	139.855	-37.5106	-83.4493	130.942	-38.9115	-53.4225	162.496	-19.3864	-79.8228	151.325	-47.3121	-74.5824	149.315	-35.3588	-33.1969	179.598	-25.5053	-70.0556	172.133	-52.9461	-64.8059	159.749	-46.5786	-30.7755	201.592	-13.6546	-57.7825	202.191	-14.2931	-79.0276	204.917	-19.4169	-100.205	189.295	6.48922	-19.036	182.909	1.39618	12.8822	153.838	11.0922	-6.171	
72	0.6	120.665	-12.6317	-11.1185	108.863	-22.4283	-43.0717	107.925	-32.6605	-71.1804	112.236	-45.0497	-91.5971	140.486	-24.1463	-83.835	128.583	-57.6558	-80.5008	126.319	-48.0594	-49.2997	155.093	-39.1606	-81.8156	144.36	-66.2199	-68.39	140.759	-46.4197	-35.6583	170.892	-42.1005	-71.8584	156.677	-68.8264	-59.9025	154.218	-54.9999	-28.8939	191.762	-30.3952	-62.6587	192.873	-40.1828	-87.5723	197.759	-51.2587	-108.119	182.22	-1.8305	-30.7562	180.944	0.690259	-3.1892	147.043	8.30844	-23.1686	
